<?xml version="1.0" encoding="UTF-8"?> <!-- Generator: Adobe Illustrator 24.1.0, SVG Export Plug-In . SVG Version: 6.00 Build 0) --> <svg xmlns="http://www.w3.org/2000/svg" xmlns:xlink="http://www.w3.org/1999/xlink" version="1.1" id="Layer_2_1_" x="0px" y="0px" viewBox="0 0 1071.2 59.2" style="enable-background:new 0 0 1071.2 59.2;" xml:space="preserve"> <style type="text/css"> .st0{fill:#FFFFFF;} .st1{fill:none;stroke:#FFFFFF;stroke-width:0.7563;stroke-miterlimit:10;} </style> <g> <g> <path class="st0" d="M94.4,19.6c2.1,0,4.1,0,6.2,0c0.1,0.7,0.2,1.4,0.2,2.2c1.8-1.9,3.8-2.8,6.3-2.7c2.5,0,4.5,0.9,6.1,2.8 c0.1-0.1,0.2-0.2,0.3-0.3c1.8-1.6,3.9-2.4,6.2-2.5c1.1-0.1,2.2,0,3.3,0.2c3.1,0.7,4.9,2.7,5.5,5.7c0.2,0.7,0.2,1.5,0.2,2.3 c0,4,0,8,0,12c0,0.2,0,0.4,0,0.6c-0.5,0.1-5.4,0.2-6.5,0.1c0-0.2,0-0.4,0-0.7c0-3.5,0-7,0-10.5c0-0.5,0-1-0.1-1.5 c-0.3-1.9-1.5-2.9-3.4-2.8c-2.2,0.1-3.8,1.6-4,3.9c0,0.3,0,0.6,0,0.9c0,3.3,0,6.7,0,10c0,0.2,0,0.5,0,0.7c-2.1,0-4.2,0-6.3,0 c0-0.2,0-0.5,0-0.7c0-3.6,0-7.2,0-10.8c0-0.5,0-1-0.1-1.4c-0.4-1.8-1.6-2.7-3.4-2.6c-2.3,0.1-3.9,1.8-4,4.1c0,0.3,0,0.5,0,0.8 c0,3.3,0,6.6,0,9.8c0,0.2,0,0.5,0,0.7c-0.4,0.1-5.8,0.2-6.5,0C94.4,33.3,94.4,26.5,94.4,19.6z"></path> <path class="st0" d="M29.6,47.3c0.9-1.6,1.8-3,2.6-4.4c0.8,0.3,1.5,0.7,2.3,0.9c1.6,0.6,3.3,0.7,5,0.4c2-0.4,3.2-1.8,3.3-3.8 c0-0.6,0-1.3,0-1.9c-0.1,0-0.2,0-0.2,0.1c-1.1,0.8-2.3,1.2-3.7,1.4c-1.8,0.2-3.5,0.1-5.2-0.5c-2.5-0.9-4.2-2.5-5.2-5 c-1.1-2.9-1.1-5.8,0.1-8.6c1.4-3.4,4-5.3,7.4-6.2c1.9-0.5,3.8-0.5,5.7-0.4c2.4,0.1,4.7,0.6,7,1.3c0.2,0.1,0.4,0.1,0.7,0.2 c0,0.2,0,0.4,0,0.6c0,6.2,0,12.3,0,18.5c0,1.1-0.1,2.1-0.4,3.1c-0.7,2.9-2.6,4.7-5.3,5.7c-1.8,0.7-3.6,0.8-5.5,0.8 c-2.3,0-4.5-0.3-6.6-1.2C30.9,47.9,30.3,47.6,29.6,47.3z M43,24.8c-0.2-0.1-0.4-0.1-0.6-0.2c-1.1-0.3-2.2-0.4-3.4-0.2 c-2.1,0.3-3.7,1.4-4.3,3.6c-0.4,1.3-0.4,2.6-0.1,3.9c0.4,1.4,1.3,2.4,2.8,2.8c1.1,0.3,2.2,0.2,3.2-0.1c1.3-0.4,2-1.3,2.2-2.7 c0.1-0.4,0.1-0.8,0.1-1.2c0-1.8,0-3.5,0-5.3C43,25.2,43,25,43,24.8z"></path> <path class="st0" d="M67.2,40.1c0-0.3,0-0.5,0-0.7c0-3.6,0-7.1,0-10.7c0-0.5,0-0.9-0.1-1.4c-0.4-1.8-1.7-2.8-3.6-2.7 c-2.4,0.1-4.1,1.7-4.1,4.1c-0.1,1.4,0,2.9,0,4.3c0,2.1,0,4.3,0,6.4c0,0.2,0,0.4,0,0.7c-2.2,0-4.3,0-6.4,0 c-0.1-0.4-0.1-28.4,0-29.1c2.1,0,4.2,0,6.4,0c0.1,1.7,0,3.5,0,5.2c0,1.7,0,3.5,0,5.3c0.2-0.1,0.2-0.2,0.3-0.2 c1.4-1.3,3.1-1.9,4.9-2.1c1.4-0.2,2.8-0.1,4.2,0.4c2.6,0.9,4.2,2.7,4.8,5.4c0.1,0.7,0.2,1.5,0.2,2.2c0,4.1,0,8.2,0,12.3 c0,0.2,0,0.4,0,0.6C71.5,40.1,69.4,40.1,67.2,40.1z"></path> <path class="st0" d="M142.6,18.9c2,0,3.9,0.4,5.7,1.3c3.6,2,5.5,5.1,5.7,9.2c0.2,5.3-3.3,9.9-8.6,11.1c-2.5,0.5-5,0.4-7.4-0.6 c-4.1-1.7-6.4-4.8-6.8-9.2c-0.4-4.4,1.4-7.9,5.1-10.2C138.2,19.4,140.2,18.9,142.6,18.9z M142.6,24.3c-2.2,0-3.9,1.2-4.7,3.3 c-0.6,1.7-0.6,3.4,0.3,5c1,1.9,2.6,2.8,4.8,2.7c2.1-0.1,3.5-1.2,4.3-3c0.6-1.4,0.6-2.8,0.2-4.3C146.8,25.7,144.9,24.3,142.6,24.3z "></path> <path class="st0" d="M198,31.7c-5,0-10,0-15,0c-0.1,0.6,0.1,1,0.3,1.5c0.6,1.1,1.5,1.9,2.7,2.3c0.9,0.3,1.8,0.4,2.8,0.4 c2.1,0,4-0.6,5.8-1.7c0.1-0.1,0.3-0.2,0.5-0.3c0.9,1.3,1.8,2.6,2.7,4c-0.6,0.4-1.2,0.8-1.8,1.2c-2.8,1.4-5.7,2-8.8,1.7 c-1.6-0.1-3.1-0.5-4.5-1.1c-3.1-1.4-5-3.8-5.7-7.1c-0.6-2.9-0.4-5.7,1.1-8.3c1.7-3,4.3-4.7,7.7-5.2c1.8-0.3,3.6-0.2,5.3,0.3 c3.2,1,5.3,3.2,6.4,6.4c0.6,1.9,0.8,3.8,0.7,5.8C198.1,31.5,198.1,31.5,198,31.7z M191.9,27.7c0-0.3-0.1-0.6-0.1-0.8 c-0.2-1-0.8-1.8-1.7-2.3c-1.7-1-3.4-1-5.1-0.1c-1.1,0.5-1.7,1.4-2,2.6c-0.1,0.2-0.1,0.4-0.1,0.7C185.9,27.7,188.9,27.7,191.9,27.7 z"></path> <path class="st0" d="M90.4,24.5c-1.8,0-3.6,0-5.4,0c0,0.2-0.1,0.3-0.1,0.5c0,2.6,0,5.2,0,7.7c0,0.5,0.1,1.1,0.3,1.6 c0.3,0.9,1,1.4,1.9,1.4c0.9,0.1,1.7-0.1,2.5-0.5c0.3-0.2,0.5-0.3,0.9-0.5c0.7,1.4,1.4,2.8,2,4.2c-0.1,0.1-0.2,0.2-0.3,0.2 c-2.7,1.7-5.6,2.1-8.7,1.4c-2.8-0.7-4.4-2.5-4.9-5.3c-0.2-0.9-0.2-1.8-0.3-2.7c0-2.4,0-4.8,0-7.3c0-0.2,0-0.4,0-0.7 c-1.1,0-2.2,0-3.3,0c0-1.7,0-3.2,0-4.9c1.1,0,2.2,0,3.3,0c0-2.1,0-4.2,0-6.2c2.2,0,4.3,0,6.5,0c0,2.1,0,4.1,0,6.2 c1.9,0,3.6,0,5.5,0C90.4,21.2,90.4,22.8,90.4,24.5z"></path> <path class="st0" d="M168.3,40.1c-2.1,0-4.1,0-6.2,0c-3-6.8-6-13.6-8.9-20.4c0.5-0.1,6.2-0.2,7.2-0.1c1.6,4.4,3.3,8.8,5,13.3 c0,0,0.1,0,0.1,0c1.6-4.4,3.2-8.9,4.8-13.3c2.4,0,4.7,0,7.1,0C174.4,26.5,171.3,33.3,168.3,40.1z"></path> <path class="st0" d="M17.2,19.5c-0.3,1.9-0.7,3.7-1,5.5c-0.2,0-0.4,0-0.6-0.1c-0.9-0.1-1.8-0.1-2.7,0c-2.2,0.4-3.7,2.1-3.8,4.4 c0,0.3,0,0.5,0,0.8c0,3.1,0,6.2,0,9.3c0,0.2,0,0.4,0,0.7c-2.2,0-4.3,0-6.4,0c-0.1-0.4-0.1-19.5,0-20.4c0.5-0.1,5.6-0.1,6.2,0 c0.1,0.8,0.1,1.5,0.2,2.4c1.3-1.4,2.7-2.6,4.5-2.8C14.7,19.1,15.9,19.1,17.2,19.5z"></path> <path class="st0" d="M18.9,40.1c0-6.8,0-13.6,0-20.4c0.4-0.1,5.5-0.2,6.4-0.1c0.1,0.4,0.2,19.2,0.1,20.4 C25,40.1,20.2,40.2,18.9,40.1z"></path> <path class="st0" d="M22.2,17.3c-0.3,0-0.7-0.1-1-0.1c-1.6-0.4-2.5-1.6-2.5-3.2c0-1.6,1-2.7,2.6-3.1c0.7-0.2,1.5-0.1,2.2,0.1 c1.5,0.5,2.4,1.9,2.2,3.5c-0.2,1.5-1.4,2.6-3,2.8C22.5,17.2,22.3,17.2,22.2,17.3C22.2,17.2,22.2,17.3,22.2,17.3z"></path> </g> <g> <path class="st0" d="M219.6,26.8c-0.7,0.6-1.3,1.1-2,1.7c-1.2,1-2.4,2-3.5,3c-0.1,0.1-0.2,0.1-0.4,0.1c-1.8,0-3.6,0-5.4,0 c-1.8,0-3.1-1.3-3.1-3.1c0-4.2,0-8.4,0-12.6c0-1,0.4-1.9,1.2-2.5c4.3-3.6,8.7-7.3,13-10.9c0.1-0.1,0.2-0.1,0.2-0.2 c0.8,0.7,1.6,1.3,2.4,2c3.6,3,7.2,6.1,10.8,9.1c0.8,0.7,1.2,1.5,1.2,2.5c0,4.2,0,8.4,0,12.6c0,1.8-1.3,3.1-3.1,3.1 c-1.8,0-3.7,0-5.5,0c-0.1,0-0.3-0.1-0.4-0.2c-1.7-1.5-3.5-2.9-5.2-4.4C219.8,27,219.7,26.9,219.6,26.8z M219.6,6.8 c-0.4,0.4-0.8,0.7-1.2,1c-3.2,2.7-6.3,5.3-9.5,8c-0.1,0.1-0.2,0.3-0.2,0.4c0,0.8,0,1.5,0,2.3c0,3.1,0,6.2,0,9.3c0,0.1,0,0.2,0,0.3 c0.1,0,0.1,0,0.1,0c1.2,0,2.4,0,3.7,0c0.1,0,0.2-0.1,0.3-0.1c1.7-1.4,3.4-2.8,5.1-4.3c0.6-0.5,1.2-1,1.7-1.5 c0.1,0.1,0.2,0.2,0.3,0.3c2.1,1.8,4.3,3.6,6.4,5.4c0.2,0.1,0.3,0.2,0.5,0.2c1.1,0,2.2,0,3.3,0c0.1,0,0.2,0,0.3,0 c0-0.1,0-0.3,0-0.4c0-1.3,0-2.6,0-3.9c0-2.5,0-5.1,0-7.6c0-0.2-0.1-0.3-0.2-0.4c-2.7-2.3-5.4-4.5-8.1-6.8 C221.3,8.3,220.5,7.6,219.6,6.8z"></path> </g> </g> <g> <path class="st0" d="M393.9,13.7c7.9-4.7,15.6-1.5,19.2,3.1c4.1,5.3,4.2,12.6,0.2,17.8c-3.6,4.7-11.5,8-19.4,3.3c0,1,0,1.8,0,2.7 c0,1.5,0,3.1,0,4.6c0,2-1.3,3.4-3.2,3.4c-1.8,0-3.2-1.5-3.2-3.4c0-10,0-19.9,0-29.9c0-2.1,0.8-3.3,2.6-3.7 C391.7,11.1,393,11.9,393.9,13.7z M401.8,17.6c-4.5,0-8,3.6-8,8.1c0,4.6,3.7,8.3,8.2,8.2c4.4,0,8-3.7,8-8.3 C410,21.2,406.4,17.7,401.8,17.6z"></path> <path class="st0" d="M306.8,33.4c3.9,0,7.6,0,11.5,0c0-1.1,0-2.1,0-3.1c0.1-1.7,1.3-3,2.9-3.2c1.6-0.2,3.1,0.8,3.5,2.3 c0,0.1,0.1,0.2,0.1,0.4c0,3.3,0,6.7,0,10.1c-0.4,0-0.7,0-1,0c-7.1,0-14.1,0-21.2,0c-1.8,0-3.2-0.6-4-2.1c-0.9-1.6-0.6-3.1,0.4-4.6 c5.2-7.5,10.4-15.1,15.6-22.6c0.2-0.2,0.3-0.5,0.6-0.9c-0.5,0-0.8,0-1.1,0c-4.2,0-8.4,0-12.7,0c-1.6,0-3-1.1-3.2-2.6 c-0.2-1.8,0.6-3.3,2.3-3.7c0.3-0.1,0.7-0.1,1-0.1c6.1,0,12.2,0,18.2,0c1.7,0,2.9,0.7,3.7,2.1c0.8,1.5,0.7,2.9-0.3,4.3 c-5,7.3-10.1,14.7-15.1,22C307.6,32.2,307.2,32.7,306.8,33.4z"></path> <path class="st0" d="M449,37.8c-7.5,4.6-15.4,1.8-19.3-3.3c-4.2-5.4-3.9-13,0.5-18.2c4.4-5.1,12.1-6.8,18.8-2.6 c0.1-0.3,0.3-0.5,0.4-0.8c0.8-1.3,2.3-1.8,3.6-1.4c1.5,0.4,2.3,1.6,2.3,3.1c0,7.4,0,14.8,0,22.1c0,1.7-0.9,2.9-2.4,3.3 c-1.5,0.4-3-0.3-3.8-1.8C449.2,38.1,449.1,38,449,37.8z M441.2,17.6c-4.5,0-8.2,3.6-8.2,8c0,4.6,3.6,8.4,8,8.4 c4.5,0,8.2-3.7,8.2-8.2C449.2,21.3,445.6,17.7,441.2,17.6z"></path> <path class="st0" d="M340.3,40.1c-8,0-14.4-6.4-14.4-14.5c0-7.9,6.5-14.3,14.6-14.3c8.3,0,14.3,7.1,14.2,14.4 C354.6,33.8,348.3,40.1,340.3,40.1z M332.2,25.7c0,4.6,3.6,8.3,8,8.3c4.4,0,8.2-3.7,8.2-8.1c0-4.5-3.6-8.2-8-8.2 C335.9,17.6,332.2,21.2,332.2,25.7z"></path> <path class="st0" d="M371,40.1c-7.9,0-14.3-6.4-14.2-14.4c0-8,6.5-14.3,14.6-14.3c7.7,0,14.1,6.5,14.1,14.3 C385.4,33.8,379.1,40.1,371,40.1z M371.2,17.6c-4.6,0-8.3,3.6-8.3,8c0,4.5,3.7,8.3,8.1,8.3c4.4,0,8.2-3.7,8.2-8.2 C379.3,21.4,375.6,17.7,371.2,17.6z"></path> <path class="st0" d="M424.7,21.6c0,5,0,10.1,0,15.2c0,2-1.3,3.4-3.2,3.4c-1.9,0-3.3-1.4-3.3-3.4c0-10.1,0-20.2,0-30.3 c0-2,1.4-3.4,3.4-3.4c1.9,0,3.1,1.3,3.1,3.3C424.7,11.5,424.7,16.5,424.7,21.6z"></path> </g> <line class="st1" x1="266" y1="7.6" x2="266" y2="44.1"></line> <line class="st1" x1="487.4" y1="7.6" x2="487.4" y2="44.1"></line> <line class="st1" x1="831.7" y1="7.6" x2="831.7" y2="44.1"></line> <g> <g> <path class="st0" d="M714,16.5c-0.9,0-1.7,0.6-1.7,1.6c0,0.9,0.8,1.6,1.7,1.6c0.8,0,1.7-0.6,1.7-1.6S714.9,16.5,714,16.5z"></path> <path class="st0" d="M638.5,28.1h-6.7c0.3-1.9,1.5-3.6,3.7-3.6c2,0,3,1.6,3,3.3V28.1z M642.4,29.8v-0.5c0-2.2-0.4-4.3-1.9-5.9 c-1.1-1.2-2.8-2-4.8-2c-4.9,0-8.1,3.4-8.1,8.3c0,5.1,3,8.4,8.2,8.4c1.7,0,3.9-0.3,5.5-1c0.4-0.2,0.5-0.3,0.5-0.6 c0-0.1,0-0.2-0.1-0.4l-0.5-1.7c-0.1-0.3-0.2-0.4-0.5-0.4c-0.1,0-0.2,0.1-0.4,0.1c-1.2,0.4-2.6,0.8-4,0.8c-2.6,0-4.4-1.7-4.7-4.3 h9.6C642.2,30.7,642.4,30.6,642.4,29.8z M626.4,36.9v-8.3c0-2.1-0.2-3.5-0.8-4.8c-0.7-1.3-2.2-2.5-4.6-2.5c-2,0-4.1,0.7-5.6,2.1 c-0.8-1.2-2.2-2.1-4.2-2.1c-1.7,0-3.5,0.7-4.8,1.9l0-0.8c0-0.5-0.3-0.6-0.8-0.6h-2.1c-0.5,0-0.8,0.2-0.8,0.8v14.3 c0,0.6,0.3,0.8,0.8,0.8h2.3c0.6,0,0.8-0.2,0.8-0.8V26.5c1.1-0.9,2.4-1.6,3.6-1.6c2,0,2.3,1.4,2.3,3.1v9c0,0.6,0.3,0.8,0.9,0.8h2.2 c0.6,0,0.8-0.2,0.8-0.8v-5.5c0-0.5-0.1-4.8-0.1-5.1c1-0.8,2.5-1.5,3.7-1.5c2,0,2.5,1.3,2.5,3.1v9c0,0.6,0.3,0.8,0.9,0.8h2.3 C626.1,37.8,626.4,37.5,626.4,36.9z M600.9,36.9V22.6c0-0.6-0.3-0.8-0.8-0.8h-2.3c-0.5,0-0.9,0.2-0.9,0.8v14.3 c0,0.6,0.3,0.8,0.9,0.8h2.3C600.7,37.8,600.9,37.5,600.9,36.9z M601.2,17.7c0-1.3-1.1-2.1-2.2-2.1c-1.1,0-2.2,0.8-2.2,2.1 c0,1.3,1.2,2,2.2,2C600,19.8,601.2,19,601.2,17.7z M595.7,22c0-0.3-0.1-0.4-0.3-0.4c-0.3-0.1-0.7-0.1-0.9-0.1 c-1.8,0-2.9,0.8-4,2.1l0-1c0-0.5-0.3-0.6-0.8-0.6h-2.1c-0.5,0-0.8,0.2-0.8,0.8v4v10.2c0,0.5,0.3,0.8,0.8,0.8h2.4 c0.5,0,0.8-0.3,0.8-0.8V26.5c0.8-1,2-1.6,3.2-1.6c0.3,0,0.6,0,0.9,0.1c0.4,0,0.5-0.1,0.6-0.4l0.4-2.3 C595.7,22.2,595.7,22.1,595.7,22z M581.4,22.4c0,2.8-1.7,4.1-4.4,4.1l-1.9,0v-8.1h1.7C579.6,18.4,581.4,19.4,581.4,22.4z M585.7,22.2c0-1.8-0.6-3.4-1.6-4.7c-1.6-1.8-4.2-2.5-7.6-2.5h-4.7c-0.6,0-0.8,0.2-0.8,0.9v20.9c0,0.7,0.3,0.9,0.8,0.9h2.6 c0.6,0,0.8-0.3,0.8-0.8v-7.3c0.2,0,1.7,0.1,2,0.1C581.9,29.8,585.7,27.3,585.7,22.2z"></path> <path class="st0" d="M711,35.8c-0.1-0.2-0.2-0.3-0.4-0.3c-0.1,0-0.1,0-0.2,0c-0.5,0.2-1.3,0.4-2.1,0.4c-0.9,0-1.4-0.3-1.8-0.7 c-0.5-0.6-0.5-1.4-0.5-2.5v-8.8h3.8c0.3,0,0.5-0.1,0.5-0.4v-1.1c0-0.4-0.2-0.4-0.5-0.4H706v-4c0-0.4-0.2-0.6-0.5-0.6h-0.1 l-1.6,0.2c-0.4,0.1-0.6,0.2-0.6,0.7v3.7h-1.9c-0.3,0-0.4,0.1-0.4,0.5v1c0,0.4,0.1,0.5,0.5,0.5h1.8v8.6c0,2,0.1,3.3,1,4.4 c0.8,0.8,2.2,1.2,3.6,1.2c1.1,0,2.3-0.3,3-0.6c0.3-0.1,0.5-0.3,0.5-0.5c0,0,0-0.1,0-0.1L711,35.8z"></path> <path class="st0" d="M700.3,35.8H700c-0.3,0-0.4-0.1-0.6-0.3c-0.1-0.2-0.2-0.7-0.2-1.5V22.6c0-0.4-0.2-0.6-0.6-0.6h-1.5 c-0.4,0-0.6,0.2-0.6,0.6l0,1.1c-1-1.3-2.7-2-4.4-2c-3.7,0-7,3.1-7,8.5c0,4.1,2,8,6.5,8c2,0,4.2-1.3,5-2.8c0,1.3,0.7,2.4,2.1,2.4 h1.4c0.3,0,0.5-0.1,0.5-0.4v-1.1C700.7,35.9,700.5,35.8,700.3,35.8z M696.5,32.5c-0.6,1.6-2.3,3.3-4.4,3.3c-2.4,0-4-2.2-4-5.8 c0-3.9,1.9-6.1,4.4-6.1c1.6,0,3.2,0.9,4,2.4L696.5,32.5L696.5,32.5z"></path> <path class="st0" d="M664.8,21.6c-4.9,0-7.5,3.6-7.5,8.2c0,4.7,2.3,8.3,7.3,8.3c4.9,0,7.6-3.6,7.6-8.3 C672.2,25.1,669.9,21.6,664.8,21.6z M664.6,35.9c-3.5,0-4.5-3.2-4.5-6.2c0-2.9,1.1-6,4.6-6c3.4,0,4.5,3.1,4.5,6.1 C669.3,32.9,668.1,35.9,664.6,35.9z"></path> <path class="st0" d="M685.1,35.4c-0.1-0.2-0.2-0.3-0.3-0.3c-0.1,0-0.2,0-0.3,0.1c-1,0.5-2.3,0.8-3.7,0.8c-3.5,0-5-2.9-5-6.2 c0-3.7,2-6,5.1-6c1.3,0,2.4,0.4,3.4,0.8c0.1,0.1,0.2,0.1,0.3,0.1c0.2,0,0.3-0.2,0.4-0.4l0.3-1.1c0-0.1,0.1-0.2,0.1-0.3 c0-0.2-0.1-0.3-0.3-0.4c-1.2-0.6-2.8-0.9-4.2-0.9c-4.9,0-7.8,3.5-7.8,8.3c0,4.9,2.5,8.2,7.6,8.2c1.5,0,3-0.3,4.4-0.9 c0.3-0.1,0.4-0.2,0.4-0.4c0-0.1,0-0.2-0.1-0.4L685.1,35.4z"></path> <path class="st0" d="M656.6,35.3h-8.2V15.9c0-0.5-0.2-0.7-0.7-0.7h-1.8c-0.4,0-0.6,0.3-0.6,0.7V37c0,0.5,0.2,0.7,0.7,0.7h10.7 c0.4,0,0.5-0.1,0.5-0.6v-1.3C657.2,35.5,657,35.3,656.6,35.3z"></path> <path class="st0" d="M724.3,21.6c-4.9,0-7.5,3.6-7.5,8.2c0,4.7,2.3,8.3,7.3,8.3c4.9,0,7.6-3.6,7.6-8.3 C731.6,25.1,729.3,21.6,724.3,21.6z M724.1,35.9c-3.5,0-4.5-3.2-4.5-6.2c0-2.9,1.1-6,4.6-6c3.4,0,4.5,3.1,4.5,6.1 C728.8,32.9,727.5,35.9,724.1,35.9z"></path> <path class="st0" d="M741.1,21.6c-1.9,0-3.9,0.7-5.4,2l0-1c0-0.4-0.2-0.6-0.6-0.6h-1.4c-0.5,0-0.6,0.2-0.6,0.7v14.5 c0,0.4,0.2,0.7,0.6,0.7h1.5c0.4,0,0.6-0.2,0.6-0.7V25.8c1.1-1.1,3-1.9,4.5-1.9c2.6,0,3.2,1.7,3.2,4v9.2c0,0.5,0.2,0.7,0.6,0.7h1.5 c0.4,0,0.6-0.2,0.6-0.7v-9.6C746.3,23.9,744.9,21.6,741.1,21.6z"></path> <path class="st0" d="M714.8,21.9h-1.5c-0.4,0-0.7,0.2-0.7,0.7v14.5c0,0.5,0.2,0.7,0.7,0.7h1.5c0.4,0,0.6-0.2,0.6-0.7V22.6 C715.4,22.1,715.2,21.9,714.8,21.9z"></path> <path class="st0" d="M749.4,35.1c-0.7,0-1.3,0.6-1.3,1.3c0,0.7,0.6,1.3,1.3,1.3c0.7,0,1.3-0.6,1.3-1.3 C750.7,35.7,750.2,35.1,749.4,35.1z"></path> <path class="st0" d="M763.3,35.4c-0.1-0.2-0.2-0.3-0.3-0.3c-0.1,0-0.2,0-0.3,0.1c-1.1,0.5-2.3,0.8-3.7,0.8c-3.5,0-5-2.9-5-6.2 c0-3.7,2-6,5.1-6c1.3,0,2.4,0.4,3.4,0.8c0.1,0.1,0.2,0.1,0.3,0.1c0.2,0,0.3-0.2,0.4-0.4l0.3-1c0-0.1,0.1-0.2,0.1-0.3 c0-0.2-0.1-0.3-0.3-0.4c-1.2-0.6-2.8-0.9-4.2-0.9c-4.9,0-7.8,3.5-7.8,8.3c0,4.9,2.5,8.2,7.7,8.2c1.5,0,3-0.3,4.4-0.9 c0.3-0.1,0.4-0.2,0.4-0.4c0-0.1,0-0.2-0.1-0.4L763.3,35.4z"></path> <path class="st0" d="M771.2,21.5c-4.9,0-7.5,3.6-7.5,8.2c0,4.7,2.3,8.3,7.4,8.3c4.9,0,7.6-3.6,7.6-8.3 C778.6,25.1,776.3,21.5,771.2,21.5z M771.1,35.9c-3.5,0-4.5-3.2-4.5-6.2c0-2.9,1.1-6,4.6-6c3.4,0,4.5,3.1,4.5,6.1 C775.7,32.9,774.5,35.9,771.1,35.9z"></path> <path class="st0" d="M798.4,21.6c-1.9,0-3.9,0.7-5.4,2l-0.4,0.4c-0.8-1.5-2.2-2.4-4.5-2.4c-1.9,0-3.9,0.7-5.4,2l0-1 c0-0.4-0.2-0.6-0.6-0.6h-1.4c-0.5,0-0.6,0.2-0.6,0.7v14.5c0,0.4,0.2,0.7,0.6,0.7h1.5c0.4,0,0.6-0.2,0.6-0.7V25.8 c1.2-1.1,3-1.9,4.5-1.9c2.6,0,3.2,1.7,3.2,4v9.2c0,0.5,0.2,0.7,0.6,0.7h1.5c0.5,0,0.6-0.2,0.6-0.7v-9.7c0-0.6,0-1.2-0.1-1.7 c1.2-1,3-1.9,4.5-1.9c2.6,0,3.2,1.7,3.2,4v9.2c0,0.5,0.2,0.7,0.6,0.7h1.5c0.5,0,0.6-0.2,0.6-0.7v-9.7 C803.6,23.9,802.2,21.6,798.4,21.6z"></path> <g> <path class="st0" d="M566.1,26.4c0-12.9-10.4-23.3-23.3-23.3c-12.9,0-23.3,10.4-23.3,23.3c0,5.2,1.7,10,4.6,13.9 c0.7,0.8,0.9,0,0.9-0.6V26.4c0-4.9,2-9.4,5.2-12.6c3.2-3.2,7.7-5.2,12.6-5.2c4.9,0,9.4,2,12.6,5.2c3.2,3.2,5.2,7.7,5.2,12.6 c0,4.9-2,9.4-5.2,12.6c-0.3,0.3-0.6,0.5-0.8,0.8c0,0-0.1,0-0.1,0.1c-0.9,0.8-1.8,1.4-2.8,2l0,0c-2.6,1.5-5.6,2.4-8.9,2.4 c-2.6,0-5-0.5-7.2-1.5c-0.3-0.2-0.3-0.5-0.3-0.5l0-4.7c0-0.2,0.2-0.4,0.4-0.2l0,0c2,1.3,4.5,2.1,7.1,2.1c7.2,0,13-5.8,13-13 s-5.8-13-13-13c-7.2,0-13,5.8-13,13.1V45c0.1,0.6,0.4,1.1,0.7,1.3c0,0,0,0,0,0c3.6,2.2,7.8,3.5,12.3,3.5c6.7,0,12.7-2.8,16.9-7.3 l0,0C563.7,38.3,566.1,32.7,566.1,26.4z M542.8,18.9c4.2,0,7.5,3.4,7.5,7.5c0,4.2-3.4,7.5-7.5,7.5c-4.2,0-7.5-3.4-7.5-7.5 S538.6,18.9,542.8,18.9z"></path> </g> </g> </g> <g> <g> <g> <g> <path class="st0" d="M882.5,56.7c-2.7-3.7-5.3-7.3-7.9-10.8c-1.5-1.9-3-3.7-4.7-5.4c-5.8-5.6-7.7-13.8-4.7-21.1 c3-7.4,10-11.9,18-11.8c7.8,0.1,14.9,5.3,17.4,12.7c2.6,7.4,0.3,15.8-5.7,20.8c-1.3,1.1-2.5,2.4-3.6,3.8 c-2.7,3.5-5.2,7-7.8,10.5C883.2,55.9,882.9,56.2,882.5,56.7z M882.8,13c-7.6,0-13.7,5.9-13.8,13.3c0,7.8,6,14,13.6,14 c7.4,0,13.6-6.2,13.6-13.5C896.4,19.2,890.4,13.1,882.8,13z"></path> </g> </g> <g> <path class="st0" d="M983.6,32.9c1.7-5.8,3.4-11.6,5.1-17.4c0.3-1.1,0.6-2.1,2-2.3c1.7-0.2,2.6,0.4,3,2.3 c0.9,4.9,1.7,9.8,2.5,14.7c0.4,2.3,0.8,4.5,1.1,6.8c0.2,1,0.1,1.9-1.2,2.1c-1.2,0.2-1.8-0.4-1.9-1.6c-0.8-5.8-1.7-11.7-2.5-17.5 c-0.1-0.7-0.2-1.4-0.6-2.1c-0.3,1.1-0.7,2.2-1,3.3c-1.6,5.3-3.1,10.7-4.7,16c-0.3,0.9-0.5,2-1.8,2c-1.5,0-1.6-1.1-1.9-2.1 c-1.8-6-3.5-11.9-5.3-17.9c-0.1-0.5-0.3-0.9-0.7-1.3c-0.7,4.6-1.3,9.2-2,13.7c-0.3,2-0.6,4-0.9,6c-0.1,1.2-0.7,1.7-1.9,1.5 c-1.2-0.1-1.3-1.1-1.2-2c0.4-2.9,0.9-5.7,1.4-8.6c0.7-4.4,1.5-8.7,2.2-13.1c0.2-1.4,1-2.3,2.5-2.3c1.5,0,2,0.9,2.4,2.2 c1.5,5.3,3.1,10.6,4.6,15.9c0.2,0.6,0.4,1.1,0.5,1.7C983.3,32.9,983.5,32.9,983.6,32.9z"></path> </g> <g> <g> <path class="st0" d="M1011.5,36.3c-2,2.3-4.3,3.2-7,2.5c-3.6-0.8-6-3.7-6.5-8.1c-0.4-3.4,0.3-6.5,2.8-9.1 c2.5-2.5,7.2-3.2,10.1-0.3c0.1,0.1,0.3,0.2,0.7,0.5c0.1-0.4,0-0.8,0.2-1c0.4-0.5,0.9-1.2,1.4-1.3c0.4-0.1,1,0.6,1.4,1.1 c0.2,0.3,0.1,0.8,0.1,1.3c0,4.9,0,9.7,0,14.6c0,0.5,0,1.2-0.2,1.6c-0.3,0.4-1,0.8-1.4,0.8c-0.4-0.1-0.9-0.6-1.2-1.1 C1011.4,37.5,1011.5,37.1,1011.5,36.3z M1000.7,29.3c0.4,1.5,0.7,2.9,1.2,4.3c0.8,1.8,2.3,2.8,4.3,2.8c1.9,0,3.4-0.9,4.2-2.6 c1.5-2.9,1.4-5.9,0-8.8c-0.8-1.7-2.2-2.7-4.2-2.7c-2,0-3.5,0.9-4.3,2.7C1001.4,26.3,1001.1,27.8,1000.7,29.3z"></path> </g> </g> <g> <path class="st0" d="M938.2,21.9c2-1.7,3.9-2.6,6.3-2.2c3.4,0.6,5.5,2.9,5.6,6.4c0.1,3.7,0,7.4,0,11.1c0,1.1-0.4,1.8-1.6,1.8 c-1.2,0-1.5-0.9-1.5-1.9c0-3.4,0-6.9,0-10.3c-0.1-2.9-1.9-4.6-4.7-4.5c-2.2,0.1-3.9,1.5-4,3.8c-0.2,3.3-0.1,6.7-0.2,10 c0,0.6,0.1,1.3-0.1,1.8c-0.3,0.5-1,1.1-1.5,1.1c-0.5,0-1-0.7-1.4-1.2c-0.2-0.2,0-0.6,0-1c0-7.8,0-15.5,0-23.3c0-0.2,0-0.4,0-0.7 c0-1.1,0.4-1.7,1.5-1.6c1.1,0,1.4,0.6,1.5,1.6c0,2.3,0,4.7,0,7.1C938.1,20.4,938.2,21,938.2,21.9z"></path> </g> <g> <path class="st0" d="M1030.9,29.9c0,2.3,0,4.2,0,6.1c0,0.6,0.1,1.3-0.2,1.8c-0.3,0.5-1,1.1-1.5,1.1c-0.5,0-1-0.7-1.4-1.2 c-0.2-0.2-0.1-0.6-0.1-1c0-7.8,0-15.5,0-23.3c0-1.1,0-2.2,1.5-2.3c1.6-0.1,1.7,1.1,1.7,2.2c0,3.6,0,7.2,0,10.8c0,0.5,0,1,0.1,1.9 c2.1-1.7,3.9-3.2,5.7-4.8c0.6-0.5,1.1-1.1,1.8-1.4c0.6-0.2,1.4,0,2.1,0c-0.1,0.7,0,1.8-0.4,2.1c-1.9,1.7-3.9,3.2-5.9,4.7 c-0.4,0.3-0.8,0.6-1.6,1.3c1.4,1.3,2.8,2.4,4.1,3.6c1.5,1.4,2.9,2.8,4.3,4.3c0.7,0.7,1.4,1.6,0.5,2.6c-1,1-1.9,0.3-2.7-0.5 c-2.4-2.5-4.8-5-7.2-7.4C1031.6,30.5,1031.4,30.3,1030.9,29.9z"></path> </g> <g> <g> <path class="st0" d="M954.9,30.5c-0.2,4.3,3.6,6.9,7.9,5.5c1-0.3,1.9-1.1,2.8-1.5c0.6-0.2,1.3-0.1,2-0.2c-0.1,0.7,0,1.8-0.4,2.2 c-3.7,3.6-12.6,4.5-15-3.1c-0.9-2.7-0.9-5.5,0.1-8.2c1.4-3.7,4.9-6,8.4-5.6c4,0.4,7,3.4,7.5,7.5c0.1,0.4,0.1,0.9,0.1,1.3 c0.1,1.8-0.3,2.1-2,2.2c-3.3,0-6.6,0-9.8,0C955.9,30.5,955.4,30.5,954.9,30.5z M954.9,28.2c0.6,0,1.3,0,1.9,0c2.5,0,5,0,7.5-0.1 c0.3,0,0.7-0.7,0.7-1.1c-0.2-3.1-2.7-5.1-5.9-4.8C956.5,22.6,954.6,25.1,954.9,28.2z"></path> </g> </g> <g> <g> <path class="st0" d="M1044.7,30.5c0.1,2.3,0.8,4,2.7,5.1c2.2,1.3,4.5,0.9,6.7-0.2c0.6-0.3,1.1-0.9,1.8-1.2 c0.5-0.2,1.4-0.3,1.6-0.1c0.3,0.5,0.2,1.2,0.2,1.8c0,0.2-0.3,0.4-0.5,0.6c-3.9,3.5-13,4.3-15.1-3.9c-0.8-3.2-0.6-6.3,1.2-9.2 c1.9-3.1,5.2-4.5,8.7-3.7c3.2,0.7,5.8,3.6,6.3,7.2c0.1,0.4,0.1,0.8,0.1,1.1c0.2,2-0.2,2.4-2.2,2.4 C1052.3,30.5,1048.5,30.5,1044.7,30.5z M1055.2,28.1c-0.2-3.9-2.3-6-5.6-5.8c-2.9,0.2-4.9,2.5-4.7,5.8 C1048.3,28.1,1051.7,28.1,1055.2,28.1z"></path> </g> </g> <g> <path class="st0" d="M907.1,21.9c1.9-1.7,3.8-2.6,6.1-2.3c3.4,0.5,5.6,2.9,5.7,6.3c0.1,3.8,0,7.5,0,11.3c0,1-0.3,1.7-1.5,1.8 c-1.2,0.1-1.6-0.7-1.7-1.8c0-3.5,0-7,0-10.5c-0.1-2.9-2-4.6-4.7-4.5c-2.3,0.1-3.9,1.7-4.1,4.3c-0.2,2.9-0.1,5.9-0.1,8.9 c0,0.6,0,1.2,0,1.8c0,1.1-0.4,1.8-1.6,1.8c-1.1-0.1-1.4-0.8-1.4-1.8c0-3.2,0-6.4,0-9.7c0-1.9,0-3.7,0-5.6c0-1-0.2-2.2,1.3-2.4 C906.7,19.4,906.9,20.5,907.1,21.9z"></path> </g> <g> <path class="st0" d="M927.5,16.2c0,0.8,0,1.4,0,2c0,6,0,11.9,0,17.9c0,0.4,0,0.8,0,1.1c0,1.1-0.3,1.9-1.6,1.9 c-1.2,0-1.6-0.8-1.6-1.9c0-4.8,0-9.6,0-14.4c0-2.1,0-4.2,0-6.6c-1.7,0-3.1,0-4.6,0c-1,0-1.8-0.3-1.7-1.5c0-1.1,0.8-1.4,1.8-1.4 c4,0,8.1,0,12.1,0c0.9,0,1.8,0.2,1.8,1.4c0,1.3-0.9,1.5-1.9,1.5C930.5,16.2,929.1,16.2,927.5,16.2z"></path> </g> <g> <path class="st0" d="M1064.3,19.7c0.7,0,1.2-0.1,1.6,0.1c0.5,0.3,1.1,0.8,1.1,1.2c0,0.4-0.7,1.3-1,1.2c-1.6-0.1-1.7,0.8-1.7,2 c0.1,4.1,0,8.3,0,12.4c0,1.1-0.1,2.2-1.5,2.2c-1.6,0-1.6-1.1-1.6-2.3c0-4.7,0-9.4,0-14c-1-0.6-3.1,0.2-2.7-1.8 c0.1-0.7,1.5-1.1,2.3-1.6c0.1,0.1,0.3,0.2,0.4,0.4c0-1.3,0-2.6,0-3.9c0-1.1,0.4-1.8,1.6-1.8c1.1,0,1.5,0.8,1.5,1.8 C1064.3,17,1064.3,18.3,1064.3,19.7z"></path> </g> <g> <path class="st0" d="M1020.2,22.1c1.3-0.9,2.4-1.7,3.6-2.4c1-0.5,2-0.2,2.4,0.9c0.4,1.2-0.4,1.8-1.5,2.1 c-3.6,1.1-4.5,2.5-4.6,6.2c0,2.6,0,5.2,0,7.9c0,1.1,0,2.2-1.5,2.2c-1.5,0-1.6-1-1.6-2.2c0-5.1,0-10.3,0-15.4 c0-1.1,0.4-1.9,1.5-1.9c1.2,0,1.6,0.8,1.6,1.9C1020.2,21.7,1020.2,21.9,1020.2,22.1z"></path> </g> <g> <path class="st0" d="M882.7,36.2c-5.3,0-9.6-4.3-9.6-9.6c0-5.2,4.3-9.5,9.5-9.5c5.3,0,9.6,4.2,9.7,9.5 C892.4,31.8,888,36.1,882.7,36.2z"></path> </g> </g> </g> </svg> 